<svg xmlns="http://www.w3.org/2000/svg" width="520.18" height="125.408" viewBox="0 0 4571 1102">
  <defs>
    <style>
      .cls-1 {
        fill: #b4e1de;
        stroke: #b4e1de;
        stroke-width: 33.28px;
      }

      .cls-2 {
        fill: #17a2b8;
        stroke: #000;
        stroke-width: 1px;
        fill-rule: evenodd;
      }
    </style>
  </defs>
  <circle id="Ellipse_1_copy" data-name="Ellipse 1 copy" class="cls-1" cx="547" cy="551" r="512"/>
  <path id="C" class="cls-2" d="M439.394,269.029q-83.4,36.3-135.256,105.007Q244.5,453.116,244.5,549.049q0,82.544,47.534,158.159,48.391,77.783,131.8,115.378Q495.564,855,567.736,855q69.135,0,133.1-30.681,27.223-12.965,43.645-15.989,28.521-5.611,37.6-12.964,21.168-17.713,36.3-48.83T833.5,690.355q0-19.872-10.8-33.922t-25.927-14.045q-10.371,0-26.792,15.557-19.021,18.585-53.368,30.249a214.411,214.411,0,0,1-69.357,11.668q-95.072,0-146.06-82.537Q463.594,555.534,463.593,481.2q0-54.012,26.144-86.209T560.39,362.8q45.8,0,87.722,29.385a138.329,138.329,0,0,1,28.521,27.008Q688.3,434.1,706.882,468.241q12.963,24.206,26.792,33.706t35.866,9.506a76.939,76.939,0,0,0,43.646-12.963q35.862-24.2,35.866-76.487,0-74.32-41.484-124.453-16.854-20.743-39.324-20.743a55.809,55.809,0,0,0-12.532,1.3q-17.287,3.89-25.063,3.889-10.808,0-38.46-12.964-58.773-27.649-121.86-27.656-67.411,0-130.935,27.656h0Z"/>
  <path id="Copper" class="cls-2" d="M1467.51,269.1q-83.4,36.3-135.25,105.007-59.64,79.08-59.64,175.012,0,82.544,47.54,158.159,48.39,77.784,131.8,115.379,71.715,32.409,143.9,32.409,69.135,0,133.09-30.681,27.225-12.963,43.65-15.988,28.515-5.611,37.59-12.964,21.165-17.715,36.3-48.831,15.12-31.113,15.13-56.177,0-19.871-10.81-33.922t-25.93-14.044q-10.365,0-26.79,15.557-19.02,18.585-53.37,30.249a214.377,214.377,0,0,1-69.35,11.667q-95.07,0-146.06-82.536-37.605-61.791-37.6-136.121,0-54.014,26.15-86.21,26.13-32.187,70.65-32.193,45.795,0,87.72,29.384a138.247,138.247,0,0,1,28.52,27.008q11.67,14.909,30.25,49.047,12.96,24.206,26.79,33.706t35.87,9.507a76.961,76.961,0,0,0,43.65-12.964q35.85-24.195,35.86-76.487,0-74.319-41.48-124.453-16.86-20.742-39.33-20.742a55.8,55.8,0,0,0-12.53,1.3q-17.28,3.889-25.06,3.89-10.815,0-38.46-12.964-58.77-27.649-121.86-27.657-67.41,0-130.94,27.657h0Zm512.08,211.743q-76.065,64.82-76.06,166.8,0,91.617,62.23,148.652,63.945,58.773,167.23,58.769,105.87,0,187.98-62.658,85.98-65.681,85.99-159.456,0-53.577-26.79-102.846-25.935-47.1-68.71-76.487-59.625-41.049-138.71-41.053-113.655,0-193.16,68.277h0Zm198.34,61.794q13.83,28.956,23.55,75.191t9.73,82.536q0,48.838-38.46,48.831-30.255,0-43.65-35.435-13.395-34.566-23.12-79.295t-9.72-70.653q0-23.336,11.45-37.38t30.47-14.044q25.485,0.871,39.75,30.249h0Zm303.79-78.647Q2454.5,476.525,2442.4,489.7q-12.105,13.188-12.1,30.466,0,14.259,8.64,24.415a37.644,37.644,0,0,0,22.47,12.748q18.15,3.463,21.39,4.753t4.97,5.618q4.755,12.963,7.78,119.267-2.6,129.214-7.56,156.431t-27.44,37.6q-15.555,7.342-20.96,14.044t-5.4,19.662q0,28.086,35.86,47.1,70.44,37.6,164.21,37.6,52.725,0,81.67-14.045t28.96-39.972q0-11.667-4.11-16.637t-25.28-19.229q-22.9-15.132-22.9-49.263,0-25.928,12.96-25.928,4.755,0,12.53,3.457,38.895,17.279,75.63,17.285,72.165,0,128.77-54.88,73.455-70.429,73.46-179.333a253.309,253.309,0,0,0-19.01-97.229q-18.15-44.077-50.99-73.03-43.215-38.02-98.09-38.028-23.34,0-52.08,8.427t-47.31,20.958q-24.63,16.428-28.96,16.421-10.365,0-10.37-15.989,0-18.149-6.48-22.686t-32.84-4.538q-62.235.872-168.1,48.831h0Zm244.15,73.894q21.615,0,37.17,15.989,25.05,25.927,25.06,89.45,0,98.1-59.63,98.094-19.455,0-31.12-8.211T2685.69,711.6q0-6.908.43-14.261L2692.6,578.5q2.595-40.614,33.27-40.62h0Zm344.84-73.894q-27.225,12.539-39.32,25.711-12.1,13.188-12.1,30.466,0,14.259,8.64,24.415a37.644,37.644,0,0,0,22.47,12.748q18.15,3.463,21.39,4.753t4.97,5.618q4.755,12.963,7.78,119.267-2.6,129.214-7.56,156.431-4.98,27.224-27.44,37.6-15.555,7.342-20.96,14.044t-5.4,19.662q0,28.086,35.86,47.1,70.44,37.6,164.21,37.6,52.725,0,81.68-14.045,28.935-14.048,28.95-39.972,0-11.667-4.11-16.637t-25.28-19.229q-22.9-15.132-22.9-49.263,0-25.928,12.96-25.928,4.755,0,12.54,3.457,38.88,17.279,75.62,17.285,72.165,0,128.77-54.88,73.47-70.429,73.47-179.333a253.13,253.13,0,0,0-19.02-97.229q-18.15-44.077-50.99-73.03-43.215-38.02-98.09-38.028-23.34,0-52.07,8.427-28.755,8.427-47.32,20.958-24.63,16.428-28.95,16.421-10.38,0-10.38-15.989,0-18.149-6.48-22.686t-32.84-4.538q-62.22.872-168.1,48.831h0Zm244.15,73.894q21.615,0,37.17,15.989,25.05,25.927,25.06,89.45,0,98.1-59.63,98.094-19.455,0-31.12-8.211T3274.68,711.6q0-6.908.43-14.261l6.48-118.835q2.6-40.614,33.27-40.62h0Zm730.73,93.988q11.67-17.927,11.67-46.022,0-34.566-20.31-70.869a186.726,186.726,0,0,0-46.67-55.312Q3932.8,412.994,3850.7,413q-51.42,0-95.5,18.581-58.77,24.631-96.79,74.758-44.085,57.912-44.08,130.5a219.032,219.032,0,0,0,25.5,102.847,215.864,215.864,0,0,0,49.26,62.659q61.35,52.727,152.11,52.719,89.88,0,158.59-51.423,38.895-28.946,38.89-60.066,0-14.685-10.8-28.52-10.815-13.826-22.04-13.828-8.655,0-23.34,10.371-16.425,11.667-41.7,19.662t-46.02,7.994q-35,0-65.47-24.847t-30.46-52.936q0-11.668,13.4-11.668h203.1Q4033.92,649.8,4045.59,631.868Zm-243.93-68.06q-6.27-5.186-6.27-18.15,0-18.149,12.97-35.867,13.815-19.01,38.02-19.013,21.615,0,35.01,14.692t13.39,38.028q0,25.5-27.65,25.5h-43.65Q3807.925,568.993,3801.66,563.808ZM4173.94,435.9q-49.695,14.7-70.87,29.6t-21.18,35.651q0,22.91,30.68,35,12.975,5.185,17.29,13.612t4.32,27.873q0,106.3-6.91,145.627-1.74,11.667-6.48,18.366-4.77,6.7-17.29,14.908-25.92,17.724-25.93,40.188,0,29.817,35.44,41.917,39.75,13.389,116.24,13.4,80.37,0,121.86-8.643,20.745-4.314,33.27-17.5a43.372,43.372,0,0,0,12.54-30.9q0-28.947-38.9-40.621-17.715-5.186-23.11-10.155-5.415-4.962-8.43-17.933-4.755-23.76-4.75-89.019,0-43.641,3.67-57.257t15.77-13.612q7.785,0,16.85,9.075,24.195,23.77,39.11,31.545t36.95,7.779q40.185,0,67.84-26.36,15.12-13.826,24.63-35.219t9.51-41.7q0-18.15-7.78-37.811t-19.88-32.194q-25.065-25.493-64.38-25.5-55.755,0-90.32,54.017-7.77,12.538-16.42,12.531-11.235,0-13.39-19.013-3.9-35-8.86-41.485-4.98-6.482-27.88-6.482-46.665.437-113.21,20.31h0Z"/>
</svg>
